<svg version="1.1" xmlns="http://www.w3.org/2000/svg" width="1000" height="600"><defs><clipPath id="wXTBcTBWNPSF"><path fill="none" stroke="none" d="M 5.5 27.5 L 970.5 27.5 L 970.5 555.5 L 5.5 555.5 L 5.5 27.5 Z"/></clipPath><clipPath id="GozvQUeDsThm"><path fill="none" stroke="none" d="M 5.5 27.5 L 970.5 27.5 L 970.5 555.5 L 5.5 555.5 L 5.5 27.5 Z"/></clipPath><clipPath id="GDvZePmfnXFK"><path fill="none" stroke="none" d="M 5.5 27.5 L 970.5 27.5 L 970.5 555.5 L 5.5 555.5 L 5.5 27.5 Z"/></clipPath><clipPath id="RDWsnXFebTKC"><path fill="none" stroke="none" d="M 5.5 27.5 L 970.5 27.5 L 970.5 555.5 L 5.5 555.5 L 5.5 27.5 Z"/></clipPath><clipPath id="RrhWDLaACNNx"><path fill="none" stroke="none" d="M 5.5 27.5 L 970.5 27.5 L 970.5 555.5 L 5.5 555.5 L 5.5 27.5 Z"/></clipPath></defs><path fill="rgb(255,255,255)" stroke="none" paint-order="stroke" d="M 0.5 0.5 L 1000.5 0.5 L 1000.5 600.5 L 0.5 600.5 L 0.5 0.5 Z" fill-opacity="1"/><rect fill="#FFFFFF" stroke="none" x="5" y="27" width="965" height="528" transform="matrix(1, 0, 0, 1, 0.5, 0.5)"/><path fill="rgb(255,255,255)" stroke="none" paint-order="stroke" d="M 5.5 27.5 L 970.5 27.5 L 970.5 555.5 L 5.5 555.5 L 5.5 27.5 Z" fill-opacity="1"/><path fill="none" stroke="rgb(229,229,229)" paint-order="fill" d="M 5.5 27.5 L 970.5 27.5 L 970.5 555.5 L 5.5 555.5 L 5.5 27.5 Z" stroke-opacity="1" stroke-linejoin="bevel" stroke-miterlimit="10"/><path fill="none" stroke="rgb(229,229,229)" paint-order="fill" d="M 116.5 555.5 L 116.5 27.5 M 302.5 555.5 L 302.5 27.5 M 488.5 555.5 L 488.5 27.5 M 673.5 555.5 L 673.5 27.5 M 859.5 555.5 L 859.5 27.5" stroke-opacity="1" stroke-linejoin="bevel" stroke-miterlimit="10" clip-path="url(#wXTBcTBWNPSF)"/><path fill="none" stroke="rgb(229,229,229)" paint-order="fill" d="M 5.5 449.5 L 970.5 449.5 M 5.5 344.5 L 970.5 344.5 M 5.5 238.5 L 970.5 238.5 M 5.5 133.5 L 970.5 133.5" stroke-opacity="1" stroke-linejoin="bevel" stroke-miterlimit="10" clip-path="url(#GozvQUeDsThm)"/><path fill="none" stroke="rgb(0,128,0)" paint-order="fill" d="" stroke-opacity="1" stroke-linejoin="bevel" stroke-miterlimit="10" stroke-width="2" clip-path="url(#GDvZePmfnXFK)"/><path fill="none" stroke="rgb(0,0,0)" paint-order="fill" d="M 5.5 555.5 L 970.5 555.5" stroke-opacity="1" stroke-linejoin="bevel" stroke-miterlimit="10"/><path fill="none" stroke="rgb(0,0,0)" paint-order="fill" d="M 116.5 561.5 L 116.5 553.5 M 302.5 561.5 L 302.5 553.5 M 488.5 561.5 L 488.5 553.5 M 673.5 561.5 L 673.5 553.5 M 859.5 561.5 L 859.5 553.5" stroke-opacity="1" stroke-linejoin="bevel" stroke-miterlimit="10"/><path fill="none" stroke="rgb(0,0,0)" paint-order="fill" d="M 79.5 559.5 L 79.5 555.5 M 42.5 559.5 L 42.5 555.5 M 5.5 559.5 L 5.5 555.5 M 116.5 559.5 L 116.5 555.5 M 153.5 559.5 L 153.5 555.5 M 191.5 559.5 L 191.5 555.5 M 228.5 559.5 L 228.5 555.5 M 265.5 559.5 L 265.5 555.5 M 302.5 559.5 L 302.5 555.5 M 339.5 559.5 L 339.5 555.5 M 376.5 559.5 L 376.5 555.5 M 413.5 559.5 L 413.5 555.5 M 450.5 559.5 L 450.5 555.5 M 488.5 559.5 L 488.5 555.5 M 525.5 559.5 L 525.5 555.5 M 562.5 559.5 L 562.5 555.5 M 599.5 559.5 L 599.5 555.5 M 636.5 559.5 L 636.5 555.5 M 673.5 559.5 L 673.5 555.5 M 710.5 559.5 L 710.5 555.5 M 747.5 559.5 L 747.5 555.5 M 784.5 559.5 L 784.5 555.5 M 822.5 559.5 L 822.5 555.5 M 859.5 559.5 L 859.5 555.5 M 896.5 559.5 L 896.5 555.5 M 933.5 559.5 L 933.5 555.5 M 970.5 559.5 L 970.5 555.5" stroke-opacity="1" stroke-linejoin="bevel" stroke-miterlimit="10"/><text fill="rgb(68,68,68)" stroke="none" font-family="helvetica" font-size="11px" font-style="normal" font-weight="normal" text-decoration="normal" x="107.01656341552734" y="574" text-anchor="start" dominant-baseline="alphabetic" transform="matrix(1, 0, 0, 1, 0.5, 0.5)" fill-opacity="1">−20</text><text fill="none" stroke="rgb(0,0,0)" font-family="helvetica" font-size="11px" font-style="normal" font-weight="normal" text-decoration="normal" x="107.01656341552734" y="574" text-anchor="start" dominant-baseline="alphabetic" transform="matrix(1, 0, 0, 1, 0.5, 0.5)" stroke-opacity="0" stroke-linejoin="bevel" stroke-miterlimit="10">−20</text><text fill="rgb(68,68,68)" stroke="none" font-family="helvetica" font-size="11px" font-style="normal" font-weight="normal" text-decoration="normal" x="292.5934753417969" y="574" text-anchor="start" dominant-baseline="alphabetic" transform="matrix(1, 0, 0, 1, 0.5, 0.5)" fill-opacity="1">−10</text><text fill="none" stroke="rgb(0,0,0)" font-family="helvetica" font-size="11px" font-style="normal" font-weight="normal" text-decoration="normal" x="292.5934753417969" y="574" text-anchor="start" dominant-baseline="alphabetic" transform="matrix(1, 0, 0, 1, 0.5, 0.5)" stroke-opacity="0" stroke-linejoin="bevel" stroke-miterlimit="10">−10</text><text fill="rgb(68,68,68)" stroke="none" font-family="helvetica" font-size="11px" font-style="normal" font-weight="normal" text-decoration="normal" x="484.441162109375" y="574" text-anchor="start" dominant-baseline="alphabetic" transform="matrix(1, 0, 0, 1, 0.5, 0.5)" fill-opacity="1">0</text><text fill="none" stroke="rgb(0,0,0)" font-family="helvetica" font-size="11px" font-style="normal" font-weight="normal" text-decoration="normal" x="484.441162109375" y="574" text-anchor="start" dominant-baseline="alphabetic" transform="matrix(1, 0, 0, 1, 0.5, 0.5)" stroke-opacity="0" stroke-linejoin="bevel" stroke-miterlimit="10">0</text><text fill="rgb(68,68,68)" stroke="none" font-family="helvetica" font-size="11px" font-style="normal" font-weight="normal" text-decoration="normal" x="666.959228515625" y="574" text-anchor="start" dominant-baseline="alphabetic" transform="matrix(1, 0, 0, 1, 0.5, 0.5)" fill-opacity="1">10</text><text fill="none" stroke="rgb(0,0,0)" font-family="helvetica" font-size="11px" font-style="normal" font-weight="normal" text-decoration="normal" x="666.959228515625" y="574" text-anchor="start" dominant-baseline="alphabetic" transform="matrix(1, 0, 0, 1, 0.5, 0.5)" stroke-opacity="0" stroke-linejoin="bevel" stroke-miterlimit="10">10</text><text fill="rgb(68,68,68)" stroke="none" font-family="helvetica" font-size="11px" font-style="normal" font-weight="normal" text-decoration="normal" x="852.5361938476562" y="574" text-anchor="start" dominant-baseline="alphabetic" transform="matrix(1, 0, 0, 1, 0.5, 0.5)" fill-opacity="1">20</text><text fill="none" stroke="rgb(0,0,0)" font-family="helvetica" font-size="11px" font-style="normal" font-weight="normal" text-decoration="normal" x="852.5361938476562" y="574" text-anchor="start" dominant-baseline="alphabetic" transform="matrix(1, 0, 0, 1, 0.5, 0.5)" stroke-opacity="0" stroke-linejoin="bevel" stroke-miterlimit="10">20</text><text fill="rgb(68,68,68)" stroke="none" font-family="helvetica" font-size="13px" font-style="italic" font-weight="normal" text-decoration="normal" x="485.694091796875" y="594" text-anchor="start" dominant-baseline="alphabetic" transform="matrix(1, 0, 0, 1, 0.5, 0.5)" fill-opacity="1">t</text><text fill="none" stroke="rgb(0,0,0)" font-family="helvetica" font-size="13px" font-style="italic" font-weight="normal" text-decoration="normal" x="485.694091796875" y="594" text-anchor="start" dominant-baseline="alphabetic" transform="matrix(1, 0, 0, 1, 0.5, 0.5)" stroke-opacity="0" stroke-linejoin="bevel" stroke-miterlimit="10">t</text><path fill="none" stroke="rgb(0,0,0)" paint-order="fill" d="M 488.5 555.5 L 488.5 27.5" stroke-opacity="1" stroke-linejoin="bevel" stroke-miterlimit="10" clip-path="url(#RDWsnXFebTKC)"/><path fill="none" stroke="rgb(0,0,0)" paint-order="fill" d="M 482.5 555.5 L 490.5 555.5 M 482.5 449.5 L 490.5 449.5 M 482.5 344.5 L 490.5 344.5 M 482.5 238.5 L 490.5 238.5 M 482.5 133.5 L 490.5 133.5 M 482.5 27.5 L 490.5 27.5" stroke-opacity="1" stroke-linejoin="bevel" stroke-miterlimit="10" clip-path="url(#RDWsnXFebTKC)"/><path fill="none" stroke="rgb(0,0,0)" paint-order="fill" d="M 484.5 555.5 L 488.5 555.5 M 484.5 534.5 L 488.5 534.5 M 484.5 513.5 L 488.5 513.5 M 484.5 492.5 L 488.5 492.5 M 484.5 471.5 L 488.5 471.5 M 484.5 449.5 L 488.5 449.5 M 484.5 428.5 L 488.5 428.5 M 484.5 407.5 L 488.5 407.5 M 484.5 386.5 L 488.5 386.5 M 484.5 365.5 L 488.5 365.5 M 484.5 344.5 L 488.5 344.5 M 484.5 323.5 L 488.5 323.5 M 484.5 302.5 L 488.5 302.5 M 484.5 280.5 L 488.5 280.5 M 484.5 259.5 L 488.5 259.5 M 484.5 238.5 L 488.5 238.5 M 484.5 217.5 L 488.5 217.5 M 484.5 196.5 L 488.5 196.5 M 484.5 175.5 L 488.5 175.5 M 484.5 154.5 L 488.5 154.5 M 484.5 133.5 L 488.5 133.5 M 484.5 111.5 L 488.5 111.5 M 484.5 90.5 L 488.5 90.5 M 484.5 69.5 L 488.5 69.5 M 484.5 48.5 L 488.5 48.5 M 484.5 27.5 L 488.5 27.5" stroke-opacity="1" stroke-linejoin="bevel" stroke-miterlimit="10" clip-path="url(#RDWsnXFebTKC)"/><g clip-path="url(#RDWsnXFebTKC)"><text fill="rgb(68,68,68)" stroke="none" font-family="helvetica" font-size="11px" font-style="normal" font-weight="normal" text-decoration="normal" x="470.38232421875" y="559" text-anchor="start" dominant-baseline="alphabetic" transform="matrix(1, 0, 0, 1, 0.5, 0.5)" fill-opacity="1">0</text></g><g clip-path="url(#RDWsnXFebTKC)"><text fill="none" stroke="rgb(0,0,0)" font-family="helvetica" font-size="11px" font-style="normal" font-weight="normal" text-decoration="normal" x="470.38232421875" y="559" text-anchor="start" dominant-baseline="alphabetic" transform="matrix(1, 0, 0, 1, 0.5, 0.5)" stroke-opacity="0" stroke-linejoin="bevel" stroke-miterlimit="10">0</text></g><g clip-path="url(#RDWsnXFebTKC)"><text fill="rgb(68,68,68)" stroke="none" font-family="helvetica" font-size="11px" font-style="normal" font-weight="normal" text-decoration="normal" x="470.38232421875" y="453.3999938964844" text-anchor="start" dominant-baseline="alphabetic" transform="matrix(1, 0, 0, 1, 0.5, 0.5)" fill-opacity="1">5</text></g><g clip-path="url(#RDWsnXFebTKC)"><text fill="none" stroke="rgb(0,0,0)" font-family="helvetica" font-size="11px" font-style="normal" font-weight="normal" text-decoration="normal" x="470.38232421875" y="453.3999938964844" text-anchor="start" dominant-baseline="alphabetic" transform="matrix(1, 0, 0, 1, 0.5, 0.5)" stroke-opacity="0" stroke-linejoin="bevel" stroke-miterlimit="10">5</text></g><g clip-path="url(#RDWsnXFebTKC)"><text fill="rgb(68,68,68)" stroke="none" font-family="helvetica" font-size="11px" font-style="normal" font-weight="normal" text-decoration="normal" x="464.2646484375" y="347.79998779296875" text-anchor="start" dominant-baseline="alphabetic" transform="matrix(1, 0, 0, 1, 0.5, 0.5)" fill-opacity="1">10</text></g><g clip-path="url(#RDWsnXFebTKC)"><text fill="none" stroke="rgb(0,0,0)" font-family="helvetica" font-size="11px" font-style="normal" font-weight="normal" text-decoration="normal" x="464.2646484375" y="347.79998779296875" text-anchor="start" dominant-baseline="alphabetic" transform="matrix(1, 0, 0, 1, 0.5, 0.5)" stroke-opacity="0" stroke-linejoin="bevel" stroke-miterlimit="10">10</text></g><g clip-path="url(#RDWsnXFebTKC)"><text fill="rgb(68,68,68)" stroke="none" font-family="helvetica" font-size="11px" font-style="normal" font-weight="normal" text-decoration="normal" x="464.2646484375" y="242.1999969482422" text-anchor="start" dominant-baseline="alphabetic" transform="matrix(1, 0, 0, 1, 0.5, 0.5)" fill-opacity="1">15</text></g><g clip-path="url(#RDWsnXFebTKC)"><text fill="none" stroke="rgb(0,0,0)" font-family="helvetica" font-size="11px" font-style="normal" font-weight="normal" text-decoration="normal" x="464.2646484375" y="242.1999969482422" text-anchor="start" dominant-baseline="alphabetic" transform="matrix(1, 0, 0, 1, 0.5, 0.5)" stroke-opacity="0" stroke-linejoin="bevel" stroke-miterlimit="10">15</text></g><g clip-path="url(#RDWsnXFebTKC)"><text fill="rgb(68,68,68)" stroke="none" font-family="helvetica" font-size="11px" font-style="normal" font-weight="normal" text-decoration="normal" x="464.2646484375" y="136.60000610351562" text-anchor="start" dominant-baseline="alphabetic" transform="matrix(1, 0, 0, 1, 0.5, 0.5)" fill-opacity="1">20</text></g><g clip-path="url(#RDWsnXFebTKC)"><text fill="none" stroke="rgb(0,0,0)" font-family="helvetica" font-size="11px" font-style="normal" font-weight="normal" text-decoration="normal" x="464.2646484375" y="136.60000610351562" text-anchor="start" dominant-baseline="alphabetic" transform="matrix(1, 0, 0, 1, 0.5, 0.5)" stroke-opacity="0" stroke-linejoin="bevel" stroke-miterlimit="10">20</text></g><g clip-path="url(#RDWsnXFebTKC)"><text fill="rgb(68,68,68)" stroke="none" font-family="helvetica" font-size="11px" font-style="normal" font-weight="normal" text-decoration="normal" x="464.2646484375" y="31" text-anchor="start" dominant-baseline="alphabetic" transform="matrix(1, 0, 0, 1, 0.5, 0.5)" fill-opacity="1">25</text></g><g clip-path="url(#RDWsnXFebTKC)"><text fill="none" stroke="rgb(0,0,0)" font-family="helvetica" font-size="11px" font-style="normal" font-weight="normal" text-decoration="normal" x="464.2646484375" y="31" text-anchor="start" dominant-baseline="alphabetic" transform="matrix(1, 0, 0, 1, 0.5, 0.5)" stroke-opacity="0" stroke-linejoin="bevel" stroke-miterlimit="10">25</text></g><text fill="rgb(68,68,68)" stroke="none" font-family="helvetica" font-size="13px" font-style="normal" font-weight="bold" text-decoration="normal" x="5" y="19" text-anchor="start" dominant-baseline="alphabetic" transform="matrix(1, 0, 0, 1, 0.5, 0.5)" fill-opacity="1">a(t)</text><text fill="none" stroke="rgb(0,0,0)" font-family="helvetica" font-size="13px" font-style="normal" font-weight="bold" text-decoration="normal" x="5" y="19" text-anchor="start" dominant-baseline="alphabetic" transform="matrix(1, 0, 0, 1, 0.5, 0.5)" stroke-opacity="0" stroke-miterlimit="10" stroke-dasharray="">a(t)</text></svg>